<?xml version="1.0" encoding="UTF-8" standalone="no"?>
<svg
   width="130"
   height="130"
   viewBox="0 0 130 130"
   fill="none"
   version="1.1"
   id="svg16"
   sodipodi:docname="perrito_coin.svg"
   inkscape:version="1.2.2 (b0a8486541, 2022-12-01)"
   xmlns:inkscape="http://www.inkscape.org/namespaces/inkscape"
   xmlns:sodipodi="http://sodipodi.sourceforge.net/DTD/sodipodi-0.dtd"
   xmlns="http://www.w3.org/2000/svg"
   xmlns:svg="http://www.w3.org/2000/svg">
  <defs
     id="defs20" />
  <sodipodi:namedview
     id="namedview18"
     pagecolor="#505050"
     bordercolor="#eeeeee"
     borderopacity="1"
     inkscape:showpageshadow="0"
     inkscape:pageopacity="0"
     inkscape:pagecheckerboard="0"
     inkscape:deskcolor="#505050"
     showgrid="false"
     inkscape:zoom="6.3230769"
     inkscape:cx="60.018248"
     inkscape:cy="63.418491"
     inkscape:window-width="1920"
     inkscape:window-height="998"
     inkscape:window-x="0"
     inkscape:window-y="52"
     inkscape:window-maximized="1"
     inkscape:current-layer="svg16" />
  <path
     d="M65 4.0625C52.9477 4.06246 41.1661 7.63636 31.1449 14.3322C21.1238 21.0281 13.3133 30.5453 8.70109 41.6802C4.08888 52.815 2.88213 65.0675 5.23345 76.8882C7.58477 88.709 13.3885 99.567 21.9108 108.089C27.569 113.749 34.2868 118.24 41.6805 121.304C49.0742 124.367 56.999 125.945 65.0024 125.945C73.0058 125.946 80.9309 124.37 88.3252 121.308C95.7195 118.246 102.438 113.757 108.097 108.097C113.757 102.438 118.246 95.7195 121.308 88.3252C124.37 80.9309 125.946 73.0058 125.945 65.0024C125.945 56.999 124.367 49.0742 121.304 41.6805C118.24 34.2868 113.749 27.569 108.089 21.9108C102.444 16.2345 95.7287 11.7342 88.3324 8.67054C80.9362 5.60687 73.0057 4.04064 65 4.0625V4.0625ZM105.217 105.217C99.9355 110.499 93.6656 114.689 86.765 117.548C79.8644 120.407 72.4682 121.879 64.9988 121.879C57.5295 121.879 50.1331 120.408 43.2322 117.55C36.3314 114.692 30.0611 110.502 24.7794 105.221C19.4977 99.939 15.3082 93.6687 12.4499 86.7678C9.59169 79.8669 8.12076 72.4706 8.12113 65.0012C8.1215 57.5318 9.59317 50.1356 12.4521 43.235C15.311 36.3344 19.5012 30.0645 24.7834 24.7834C30.0645 19.5012 36.3344 15.311 43.235 12.4521C50.1356 9.59315 57.5318 8.12148 65.0012 8.1211C72.4706 8.12073 79.8669 9.59166 86.7678 12.4499C93.6687 15.3081 99.939 19.4977 105.221 24.7794C110.502 30.061 114.692 36.3313 117.55 43.2322C120.408 50.1331 121.879 57.5294 121.879 64.9988C121.879 72.4682 120.407 79.8644 117.548 86.765C114.689 93.6656 110.499 99.9355 105.217 105.217V105.217Z"
     fill="#E0C6A0"
     id="path2"
     style="fill:#00ffff" />
  <path
     d="M28.0135 36.4541L24.799 33.9701C23.4136 35.7633 22.149 37.6467 21.0137 39.6079L24.5302 41.6421C25.5749 39.8374 26.7386 38.1042 28.0135 36.4541V36.4541Z"
     fill="#E0C6A0"
     id="path8"
     style="fill:#00ffff" />
  <path
     d="M53.3188 19.7529L52.3062 15.8188C50.1459 16.3753 48.0248 17.0741 45.9568 17.9105L47.4807 21.6765C49.3823 20.9073 51.3325 20.2647 53.3188 19.7529V19.7529Z"
     fill="#E0C6A0"
     id="path10"
     style="fill:#00ffff" />
  <path
     d="M65 14.2188C62.8789 14.2188 60.7598 14.35 58.6549 14.6115L59.1577 18.6428C61.0959 18.402 63.047 18.2813 65 18.2812C90.7609 18.2813 111.719 39.2392 111.719 65C111.719 90.7608 90.7609 111.719 65 111.719C39.2392 111.719 18.2813 90.7608 18.2813 65C18.2674 58.5641 19.593 52.1958 22.1737 46.3L18.4514 44.6724C15.6457 51.0813 14.2043 58.0039 14.2188 65C14.2188 93.0009 36.9992 115.781 65 115.781C93.0009 115.781 115.781 93.0009 115.781 65C115.781 36.9991 93.0009 14.2188 65 14.2188Z"
     fill="#E0C6A0"
     id="path12"
     style="fill:#00ffff" />
  <path
     style="fill:none;stroke:#00ffff;stroke-width:1px;stroke-linecap:butt;stroke-linejoin:miter;stroke-opacity:1"
     d="m 31.898199,97.788453 c 0.213805,-0.338972 0.42761,-0.677945 0.641416,-1.016918 0.08799,-0.110164 0.1858,-0.213157 0.263974,-0.330491 0.317744,-0.476914 0.578832,-0.992598 0.923933,-1.452693 0.103088,-0.137438 0.226717,-0.25863 0.329903,-0.395995 0.209539,-0.278946 0.389538,-0.579127 0.595643,-0.860621 0.348408,-0.475849 0.63584,-0.829903 0.991995,-1.323866 0.09301,-0.129002 0.169034,-0.269876 0.264379,-0.397163 0.103026,-0.137539 0.226831,-0.25866 0.329884,-0.396178 0.09505,-0.126842 0.168509,-0.268951 0.263588,-0.395773 0.236559,-0.315538 0.498929,-0.61141 0.730704,-0.930478 0.122348,-0.168428 0.206962,-0.362322 0.33025,-0.530062 0.269531,-0.366713 0.590751,-0.693534 0.859791,-1.060607 0.15861,-0.216406 0.312976,-0.436027 0.461672,-0.659361 0.07128,-0.10706 0.117649,-0.230727 0.197882,-0.331254 0.09708,-0.121643 0.232844,-0.208707 0.330066,-0.33024 0.140976,-0.176229 0.293103,-0.53717 0.395763,-0.725251 0.199691,-0.365846 0.442637,-0.703952 0.660172,-1.0583 0.09288,-0.151287 0.170807,-0.311421 0.263781,-0.462647 0.08305,-0.135092 0.182358,-0.259822 0.263984,-0.395782 0.05061,-0.0843 0.08321,-0.178424 0.132001,-0.263791 3.88e-4,-6.78e-4 0.263534,-0.395499 0.263917,-0.396111 0.06803,-0.108937 0.122594,-0.226581 0.198093,-0.330481 0.10107,-0.13909 0.225436,-0.259932 0.330067,-0.396362 0.116397,-0.151772 0.213271,-0.318091 0.332538,-0.467619 0.146391,-0.183534 0.325557,-0.340328 0.463448,-0.530332 0.2154,-0.296806 0.383672,-0.625616 0.593655,-0.926279 0.09845,-0.14097 0.222702,-0.262107 0.330095,-0.396391 0.06865,-0.08584 0.124986,-0.181518 0.197882,-0.26379 0.357533,-0.403521 0.813565,-0.684621 1.192434,-1.063744 0.144462,-0.144559 0.255007,-0.320542 0.399441,-0.465128 0.12205,-0.122178 0.280515,-0.205286 0.397327,-0.33248 0.115325,-0.125573 0.48917,-0.696103 0.599591,-0.861673 0.149112,-0.223585 0.319852,-0.432642 0.462271,-0.660548 0.05206,-0.0833 0.08306,-0.178296 0.131789,-0.263588 0.03927,-0.06874 0.09634,-0.126807 0.131731,-0.197621 0.03104,-0.06211 0.03479,-0.13552 0.06583,-0.197631 0.05748,-0.115 0.239581,-0.220874 0.317509,-0.31858 0.04937,-0.0619 0.08233,-0.135805 0.131798,-0.19763 0.02551,-0.03188 0.234969,-0.228188 0.260876,-0.260664 0.146533,-0.18369 0.239845,-0.415828 0.394518,-0.592631 0.294484,-0.336618 0.662111,-0.59214 1.009158,-0.869675 0.11034,-0.08824 0.231305,-0.164561 0.331282,-0.264389 0.07782,-0.0777 0.126325,-0.180477 0.197882,-0.263984 0.100774,-0.117603 0.240947,-0.200809 0.328541,-0.328532 0.01907,-0.0278 -0.0054,-0.194252 0,-0.216154 0.01053,-0.0428 0.04104,-0.07857 0.05409,-0.120669 0.02546,-0.08213 0.03728,-0.167994 0.06101,-0.250644 0.242276,-0.70381 -0.03386,0.165806 0.06584,-0.314998 0.0093,-0.04507 0.04253,-0.08285 0.05217,-0.127861 0.0081,-0.03765 -0.0063,-0.07753 0,-0.115524 0.01269,-0.07675 0.04611,-0.149334 0.05654,-0.226425 0.0016,-0.01187 -0.0016,-0.373379 0,-0.384566 0.01295,-0.08977 0.05466,-0.173988 0.0659,-0.263984 0.01089,-0.08716 0,-0.17568 0,-0.26352 0.02196,-0.219633 0.03673,-0.440105 0.06589,-0.658898 0.02962,-0.222251 0.111638,-0.436282 0.131992,-0.659573 0.01196,-0.131248 -0.01196,-0.264129 0,-0.395377 0.01018,-0.111621 0.05023,-0.218736 0.0661,-0.32969 0.02817,-0.196901 0.04938,-0.394848 0.0659,-0.593066 0.0055,-0.06567 -0.01084,-0.132689 0,-0.197688 0.01141,-0.06848 0.05194,-0.129558 0.06589,-0.197563 0.02088,-0.101797 -0.015,-0.208919 0,-0.311746 0.08198,-0.562112 0.03893,-9.51e-4 0.128102,-0.460128 0.02011,-0.103537 0.0192,-0.471098 0,-0.554358 -0.0069,-0.02987 -0.03075,-0.05359 -0.04001,-0.08281 -0.02616,-0.08251 -0.03486,-0.170377 -0.06589,-0.251184 -0.03522,-0.0917 -0.100735,-0.170395 -0.131799,-0.263588 -0.09919,-0.297577 -0.03266,-0.557604 -0.06589,-0.856654 -0.01237,-0.111316 -0.04887,-0.218778 -0.0659,-0.329478 -0.02694,-0.175164 -0.03883,-0.352427 -0.0659,-0.527571 -0.154577,-1.000037 -0.166235,-0.668671 -0.208576,-1.746677 -0.01041,-0.265125 0,-0.530658 0,-0.795986 0,-0.175922 -0.01252,-0.35229 0,-0.527765 0.0095,-0.133271 0.05111,-0.262587 0.06589,-0.395377 0.0072,-0.06511 -0.0092,-0.131672 0,-0.19654 0.01257,-0.08891 0.05003,-0.172905 0.06475,-0.261484 0.04446,-0.267436 -0.01797,-0.588046 0,-0.853072 0.012,-0.176938 0.04851,-0.351417 0.0671,-0.527784 0.02822,-0.267753 0.04997,-0.536153 0.07332,-0.804375 6.2e-5,-7.1e-4 0.131918,-1.591454 0.132204,-1.592947 0.03972,-0.207404 0.159695,-0.393647 0.201347,-0.600672 0.04804,-0.238756 0.03149,-0.486546 0.0659,-0.727644 0.03172,-0.222246 0.100282,-0.438175 0.132185,-0.660394 0.08395,-0.584745 0.04103,-0.765886 0.134135,-1.323152 0.03352,-0.200646 0.105156,-0.394187 0.131992,-0.595836 0.01741,-0.130839 -0.0094,-0.264319 0,-0.395976 0.0085,-0.333495 0.108109,-0.656887 0.131789,-0.988438 0.01095,-0.153368 -0.01025,-0.30786 0,-0.461276 0.01182,-0.176835 0.05427,-0.350728 0.06609,-0.527562 0.03191,-0.477442 0,-0.973181 0,-1.451549 0,-0.374408 0.02071,-0.74939 0,-1.123224 -0.01101,-0.19873 -0.05421,-0.394766 -0.06589,-0.593457 -0.01031,-0.175421 0.02487,-0.353217 0,-0.527171 -0.01969,-0.137733 -0.09826,-0.260999 -0.131992,-0.395981 -0.03243,-0.129755 -0.04393,-0.263862 -0.0659,-0.395792 -0.09837,-0.590644 -0.151701,-1.195045 -0.263975,-1.781977 -0.03009,-0.157298 -0.09931,-0.305109 -0.132995,-0.461677 -0.317423,-1.47541 0.06894,0.214924 -0.0659,-0.72639 -0.0099,-0.0688 -0.05209,-0.129674 -0.06608,-0.197751 -0.0083,-0.0404 0.0082,-0.08332 0,-0.123743 -0.01342,-0.06605 -0.05302,-0.125278 -0.06413,-0.191753 -0.155567,-0.295712 -0.02266,-0.612584 -0.0659,-0.915453 -0.007,-0.04868 -0.05015,-0.0854 -0.06589,-0.131987 -0.03202,-0.09475 0,-0.702505 0,-0.849738 0,-0.03937 -0.02524,0.0879 0,0.118107 0.01261,0.01509 0.612866,0.614782 0.724073,0.726037 0.458457,0.458653 -0.08207,-0.05824 0.85842,0.660162 0.38534,0.294347 0.739003,0.628608 1.123437,0.924136 0.06291,0.04836 0.136101,0.08247 0.198085,0.132002 0.04857,0.03881 0.08229,0.09443 0.131991,0.131789 0.03858,0.02899 0.09049,0.03632 0.129483,0.06475 0.04868,0.03549 0.08184,0.08956 0.13065,0.124882 0.03866,0.02798 0.09044,0.03422 0.128681,0.06278 0.04975,0.03716 0.08196,0.09459 0.131721,0.131731 0.03805,0.0284 0.0943,0.02892 0.128131,0.06223 0.01518,0.01495 -0.0087,0.04446 0,0.06393 0.02724,0.06113 0.118717,0.0632 0.171645,0.104163 0.04489,0.03474 0.07398,0.08677 0.117388,0.123338 0.08411,0.07084 0.1788,0.128314 0.263964,0.197882 0.15736,0.128543 0.304492,0.26938 0.463265,0.396173 0.06198,0.0495 0.132018,0.08795 0.198026,0.131925 0.08701,0.06547 0.176732,0.127472 0.261021,0.196405 0.04588,0.03752 0.0821,0.08608 0.128883,0.122464 0.06209,0.0483 0.136073,0.08031 0.196531,0.130641 0.07166,0.05965 0.123376,0.141643 0.197891,0.197688 0.08877,0.06677 0.04837,-0.08205 0.106344,0.04853 0.0061,0.01363 -0.0063,0.0312 0,0.04473 0.03539,0.07642 0.06091,0.02864 0.09391,0.113338 0.0078,0.02011 0,0.04316 0,0.06474 0.01618,0.03606 0.02924,0.07369 0.04853,0.108179 0.01281,0.0229 0.0404,0.03765 0.04722,0.06299 0.0097,0.03621 -0.0111,0.07668 0,0.112498 0.0081,0.0262 0.03606,0.04135 0.05408,0.06202 0.01688,0.0423 0.04165,0.08226 0.05065,0.12691 0.0082,0.04069 -0.006,0.08344 0,0.124511 0.01609,0.110801 0.05476,0.217954 0.0659,0.329362 0.07658,0.765622 -0.08336,0.05822 0.06589,0.461213 0.0053,0.01443 -0.0071,0.03251 0,0.04617 0.0037,0.0071 0.01924,0.0065 0.02394,0 0.0065,-0.0089 -0.0085,-0.02602 0,-0.03291 0.0106,-0.0085 0.02761,0.0033 0.04083,0 0.04262,-0.01048 0.08364,-0.02663 0.125168,-0.04083 0.568687,-0.194407 -0.276975,0.06638 0.450436,-0.06584 0.157397,-0.02861 0.306275,-0.09301 0.461479,-0.131789 0.4947,-0.12361 1.007197,-0.184217 1.509441,-0.261619 0.109585,-0.02197 0.21917,-0.04393 0.328754,-0.06589 0.04353,-0.02158 0.08362,-0.05232 0.130583,-0.06474 0.146641,-0.0388 0.331883,0.01892 0.482136,0 0.111126,-0.014 0.218168,-0.05353 0.329487,-0.0659 0.07067,-0.0079 0.481568,0.03142 0.54763,0 0.03478,-0.01654 0.05767,-0.05799 0.09554,-0.06495 0.360148,-0.06626 0.820632,0.08693 1.180186,0.131987 0.14415,0.01807 0.332354,-0.03835 0.474221,0 0.04457,0.01205 0.08633,0.03279 0.129491,0.04919 0.08663,0.02197 0.172667,0.04639 0.259882,0.06589 0.377565,0.08443 0.49281,0.07999 0.923055,0.197872 0.04646,0.01273 0.08324,0.04973 0.128623,0.06589 0.0177,0.0063 0.04129,-0.01121 0.05637,0 0.04217,0.03135 0.0566,0.09526 0.103545,0.118884 0.08092,0.04072 0.177714,0.03725 0.263656,0.06589 0.244187,0.08138 0.475999,0.201396 0.725704,0.26383 0.106546,0.02664 0.220774,-0.01566 0.329478,0 0.04794,0.0069 0.08455,0.04779 0.129395,0.0661 0.0611,0.02494 0.122481,0.05253 0.187592,0.06329 0.06426,0.01062 0.133639,-0.0207 0.195391,0 0.07509,0.02518 0.125314,0.09964 0.197688,0.131794 0.769192,0.341779 0.0444,-0.09584 0.727008,0.330265 0.06716,0.04192 0.134163,0.0844 0.19763,0.131731 0.02323,0.01732 0.03542,0.04878 0.06147,0.06147 0.01941,0.0095 0.04659,-0.01166 0.06475,0 0.01166,0.0075 -0.0067,0.02944 0,0.04156 0.02532,0.04569 0.05966,0.08591 0.09296,0.126162 0.0198,0.02394 0.05639,0.03632 0.0659,0.06589 0.0046,0.01418 -0.03483,-0.01116 -0.0447,0 -0.03084,0.0349 -0.04367,0.08228 -0.06474,0.12382 -0.04444,0.0876 -0.05131,0.207258 -0.131789,0.263583 -0.175818,0.123052 -0.471347,0.07318 -0.593413,0.249688 -0.0021,0.0031 0.0357,-0.0087 0.06311,-0.0256 0.06239,-0.03852 0.114402,-0.09256 0.177456,-0.129975 1.75e-4,-1.03e-4 0.527789,-0.26388 0.527968,-0.263979 0.112019,-0.06221 0.217154,-0.136384 0.329671,-0.197688 0.0047,-0.0026 0.788153,-0.393226 0.792723,-0.395966 0.09419,-0.05648 0.167462,-0.144567 0.263588,-0.197689 0.109181,-0.06034 0.237966,-0.07945 0.347133,-0.139815 0.29402,-0.162578 0.224095,-0.198029 0.462068,-0.396198 0.06102,-0.05081 0.132204,-0.088 0.198306,-0.131992 0.0659,-0.06596 0.126078,-0.138179 0.197688,-0.197891 0.06083,-0.05072 0.137559,-0.08025 0.197689,-0.131794 0.0944,-0.08092 0.166628,-0.186151 0.263771,-0.263767 0.381346,-0.304686 0.441556,-0.249945 0.859482,-0.528363 0.183092,-0.121973 0.347906,-0.269658 0.528171,-0.395773 0.04023,-0.02815 0.09117,-0.03823 0.131731,-0.0659 0.122777,-0.08377 0.294148,-0.272054 0.38307,-0.375739 0.07171,-0.08362 0.120405,-0.186463 0.198277,-0.264374 0.05603,-0.05606 0.141779,-0.07588 0.197824,-0.13193 0.133096,-0.133097 0.100144,-0.230974 0.261483,-0.327595 0.05965,-0.03572 0.137513,-0.03144 0.197901,-0.0659 0.0941,-0.0537 0.310309,-0.222433 0.395879,-0.329353 0.04955,-0.06191 0.07584,-0.141898 0.131915,-0.197973 0.05609,-0.0561 0.138319,-0.07978 0.198036,-0.132001 0.284658,-0.24895 0.478439,-0.509469 0.724314,-0.790407 0.200573,-0.229175 0.43745,-0.43834 0.653734,-0.652802 0.08041,-0.07973 0.12007,-0.03436 0.12007,-0.106977 0,-0.0011 0,0.06488 0,0.06599 0,0.0457 0,0.09141 0,0.137107 0,0.197763 0.02635,0.381584 -0.0659,0.566087 -0.03542,0.07083 -0.09638,0.126849 -0.131789,0.197688 -0.103538,0.207123 -0.258056,0.616578 -0.395783,0.857875 -0.07866,0.137803 -0.193016,0.254176 -0.264061,0.396053 -0.03115,0.06221 -0.03869,0.13403 -0.0661,0.197973 -0.03871,0.09028 -0.08786,0.175723 -0.131789,0.263583 -0.266863,0.533716 -0.02784,0.018 -0.32968,0.923147 -0.411957,1.028898 0.08531,-0.256328 -0.197892,0.593645 -0.01512,0.04539 -0.05313,0.08169 -0.06474,0.128097 -0.04172,0.166723 0.01679,0.393644 0,0.561332 -0.02663,0.266018 -0.107593,0.524891 -0.131799,0.79114 -0.02715,0.29867 0,0.622539 0,0.922544 0,0.127456 -0.02595,0.257582 0,0.38237 0.01,0.04808 0.04761,0.08619 0.06583,0.131789 0.02577,0.06448 0.04211,0.132372 0.06584,0.197626 0.157156,0.432105 0.180044,0.482942 0.329603,0.857175 0.04392,0.1099 0.09931,0.215881 0.131799,0.329685 0.01207,0.04229 -0.01282,0.08987 0,0.131934 0.0085,0.02796 0.04717,0.0378 0.05977,0.06418 0.0088,0.01835 -0.0035,0.04098 0,0.06101 0.0072,0.04113 0.02511,0.07995 0.03181,0.121162 0.02161,0.132801 0,0.304359 0,0.433592 0,0.153375 0.02553,0.308889 0,0.460123 -0.01136,0.06729 -0.0479,0.128005 -0.0659,0.193833 -0.0077,0.02828 0.01029,0.06049 0,0.08794 -0.06533,0.174266 -0.147351,0.391164 -0.16847,0.581222 -0.01213,0.109154 0.0167,0.220929 0,0.329478 -0.02754,0.179027 -0.102009,0.348507 -0.131789,0.527175 -0.01444,0.08665 0.01314,0.17667 0,0.263521 -0.0092,0.06053 -0.05151,0.111945 -0.06583,0.171472 -0.008,0.0331 0.0071,0.06884 0,0.102135 -0.0331,0.155297 -0.07897,0.307863 -0.129134,0.458516 -0.01551,0.04658 -0.05362,0.08419 -0.06584,0.131732 -0.01032,0.04013 0.0088,0.08381 0,0.124298 -0.05088,0.234082 -0.170861,0.460524 -0.197756,0.702567 -0.01213,0.109154 0.01093,0.220197 0,0.329477 -0.01114,0.111446 -0.05576,0.217937 -0.0659,0.329478 -0.01193,0.131251 0,0.263585 0,0.395377 -0.02202,0.154354 -0.05195,0.307786 -0.06607,0.463063 -0.01591,0.174977 0,0.351399 0,0.527098 0,0.360692 0,0.721383 0,1.082075 0,0.351322 0,0.702644 0,1.053966 0,0.197643 0.01789,0.396098 0,0.59293 -0.0381,0.419357 -0.159583,0.833852 -0.197688,1.253209 -0.07813,0.859805 0.08414,-0.06619 -0.0659,0.527166 -0.03743,0.148019 0.01936,0.373567 0,0.507658 -0.007,0.04816 -0.04932,0.08468 -0.06474,0.130824 -0.02499,0.07479 -0.0081,0.845942 0,0.901037 0.01015,0.06872 0.05607,0.128926 0.0659,0.197689 0.111853,0.782828 -0.101766,-0.07773 0.06583,0.395184 0.02063,0.0582 -0.03576,0.194703 0,0.244147 0.006,0.0083 0.02257,-0.0061 0.03085,0 0.01322,0.0097 -0.01151,0.03756 0,0.04927 0.03668,0.0373 0.02608,-0.0539 0.02608,-0.05801 0,-0.0086 -0.0079,-0.0223 0,-0.02573 0.01796,-0.0079 0.04495,0.01387 0.0588,0 0.06038,-0.06045 -0.06064,-0.104675 0.04955,-0.171925 0.01162,-0.0071 0.02749,0.0027 0.04082,0 0.08684,-0.0177 0.172125,-0.04238 0.258752,-0.06106 0.109607,-0.02364 0.219909,-0.04393 0.329864,-0.0659 0.131928,-0.04393 0.260288,-0.100551 0.395783,-0.131789 0.15148,-0.03492 0.316133,-0.0113 0.461682,-0.0659 0.211852,-0.07948 0.387827,-0.235047 0.593268,-0.329874 0.0824,-0.03803 0.179887,-0.03224 0.264167,-0.0659 0.274654,-0.109702 0.520915,-0.28245 0.794094,-0.395773 0.257378,-0.106768 0.526308,-0.183784 0.793216,-0.263801 0.34526,-0.103506 0.705441,-0.117244 1.05495,-0.197881 0.453828,-0.104705 0.933897,-0.339772 1.385017,-0.396169 0.08714,-0.01089 0.176179,0.0097 0.263463,0 1.138469,-0.126529 -0.692075,-0.0082 0.790754,-0.131799 0.109446,-0.0091 0.220323,0.01213 0.329478,0 0.09001,-0.01 0.173721,-0.05466 0.263588,-0.06589 0.08718,-0.0109 0.175718,0 0.263578,0 0.131792,0 0.264043,-0.01098 0.395377,0 0.353643,0.02956 0.709538,0.121187 1.05497,0.197901 0.109469,0.02431 0.221694,0.03644 0.329893,0.0659 0.134554,0.03663 0.26169,0.09821 0.396989,0.131992 0.129692,0.03238 0.268603,0.02409 0.39557,0.0659 0.474874,0.156381 0.28512,0.201637 0.571656,0.322991 0.06396,0.02709 0.135567,0.03482 0.197688,0.0659 0.269823,0.04663 0.430296,0.280578 0.659409,0.395454 0.105247,0.05277 0.222961,0.07804 0.327644,0.131924 0.02391,0.0123 0.02833,0.04778 0.05065,0.06278 0.07723,0.05193 0.171497,0.07372 0.251503,0.121268 0.134867,0.08016 0.253248,0.188122 0.3939,0.257632 0.06108,0.03019 0.12879,0.04496 0.194696,0.06225 0.01375,0.0036 0.03169,-0.0091 0.04264,0 0.09044,0.07486 -0.190346,-0.0028 0.06052,0.0711 0.0195,0.0057 0.04659,-0.01435 0.06099,0 0.0075,0.0075 0.122084,0.243577 0.127628,0.251165 0.03578,0.04897 0.09229,0.08105 0.125312,0.131924 0.107163,0.165085 0.175713,0.352239 0.263675,0.528305 0.324229,0.64898 -0.07301,-0.165127 0.263781,0.594466 0.03985,0.08987 0.08301,0.178484 0.131722,0.263877 0.0393,0.06889 0.102132,0.12454 0.131799,0.198094 0.01604,0.03978 -0.01091,0.0872 0,0.128681 0.0069,0.02629 0.0405,0.03871 0.05065,0.06393 0.0077,0.01918 -0.0055,0.0421 0,0.06202 0.02854,0.103017 0.08737,0.195115 0.10675,0.304033 0.0269,0.15122 -0.01695,0.308128 0,0.460785 -0.0039,0.207006 0.10941,0.392054 0.131789,0.593451 0.01213,0.109154 -0.0099,0.220103 0,0.329478 0.09325,1.026288 0.03211,-0.171069 0.131992,0.725453 0.01702,0.152814 -0.02535,0.309622 0,0.461277 0.01139,0.06815 0.0541,0.128455 0.06589,0.19654 0.02003,0.115705 0,0.234852 0,0.352277 0,0.183985 0,0.36797 0,0.551955 0,0.16066 0.0326,0.511433 0,0.658367 -0.02942,0.132576 -0.09333,0.255313 -0.13064,0.385888 -0.04782,0.167366 -0.06402,0.303152 -0.131789,0.461277 -0.03874,0.0904 -0.0817,0.179356 -0.131924,0.263916 -0.01493,0.02513 -0.05254,0.03449 -0.06179,0.06222 -0.01298,0.03892 0.0086,0.08297 0,0.123083 -0.02776,0.129226 -0.102354,0.245307 -0.174473,0.356071 -0.03226,0.04955 -0.08772,0.08055 -0.122204,0.128575 -0.082,0.114188 -0.108074,0.267767 -0.1807,0.386458 -0.01521,0.02486 -0.04613,0.03731 -0.06173,0.06193 -0.109064,0.172211 -0.192959,0.362447 -0.322431,0.524618 -0.03827,0.04794 -0.0932,0.08118 -0.130022,0.130244 -0.08171,0.108894 -0.114717,0.293601 -0.246098,0.363099 -0.01528,0.0081 -0.03456,0 -0.05185,0 -0.04227,0.01541 -0.08863,0.02242 -0.126798,0.04623 -0.244907,0.152778 -0.187835,0.179425 -0.391333,0.260248 -0.381822,0.151648 -0.791703,0.219716 -1.185707,0.328725 -1.142632,0.316131 -0.179079,0.105846 -1.397633,0.332373 -1.216715,0.226186 -0.266266,0.07212 -1.333345,0.205527 -0.286825,0.03586 -0.568413,0.116762 -0.857069,0.131992 -0.438899,0.02316 -0.880536,-0.03648 -1.318529,0 -0.111753,0.0093 -0.218627,0.052 -0.329902,0.0659 -0.06539,0.0082 -0.133692,-0.01571 -0.197689,0 -0.02851,0.007 -0.03354,0.05315 -0.06101,0.0635 -0.08853,0.03335 -0.189826,-0.01086 -0.283801,0 -0.286623,0.03311 -0.57162,0.08018 -0.855495,0.131789 -0.08911,0.0162 -0.173932,0.05309 -0.263588,0.0659 -0.06523,0.0093 -0.132203,-0.0073 -0.197689,0 -0.131149,0.0147 -0.258982,0.05369 -0.390387,0.0659 -0.105862,0.0098 -0.214114,-0.01766 -0.318956,0 -0.0256,0.0043 -0.02341,0.05202 -0.04749,0.06172 -0.03268,0.01317 -0.07119,-0.0071 -0.105708,0 -0.06766,0.01391 -0.133268,0.03726 -0.197621,0.06237 -0.09135,0.03564 -0.181085,0.07792 -0.26296,0.131886 -0.02496,0.01645 -0.03821,0.04768 -0.06393,0.06292 -0.229844,0.136136 -0.472802,0.25329 -0.706602,0.383147 -0.262601,-0.09745 -0.254303,0.172195 -0.386004,0.251 -0.237019,0.141824 -0.530344,0.191192 -0.776874,0.314439 -0.114436,0.05721 -0.214612,0.140383 -0.329034,0.197621 -0.0621,0.03106 -0.132626,0.04141 -0.197621,0.06583 -0.107863,0.04334 -0.215726,0.08669 -0.323589,0.130032 -0.04289,0.02196 -0.08401,0.04779 -0.128671,0.06589 -0.178018,0.07214 -0.178594,0.0422 -0.326071,0.12816 -0.118306,0.06896 -0.50843,0.393302 -0.565497,0.505235 -0.01898,0.03724 0.01271,0.08557 0,0.125389 -0.0086,0.02706 -0.04527,0.03642 -0.05949,0.06102 -0.007,0.01209 0.0095,0.03168 0,0.04188 -0.0089,0.0095 -0.03388,-0.01194 -0.03911,0 -0.01194,0.02726 0.0092,0.06097 0,0.08928 -0.03405,0.104858 -0.08827,0.202132 -0.128034,0.30496 -0.07296,0.188671 -0.147167,0.395998 -0.197631,0.591849 -0.02608,0.101213 -0.04596,0.204002 -0.06412,0.306929 -0.0033,0.01851 0.0099,0.04041 0,0.05637 -0.01315,0.02119 -0.04859,0.02129 -0.06147,0.04265 -0.0388,0.0643 0.03812,0.698386 0,0.831538 -0.157383,0.54973 0.02764,-0.281275 -0.06292,0.443023 -0.101019,0.807934 -0.02315,-0.188208 -0.131982,0.461276 -0.02131,0.12715 0.02596,0.260486 0,0.386767 -0.0095,0.04623 -0.04838,0.08163 -0.06494,0.125834 -0.04086,0.10904 0.019,0.458685 0,0.591637 -0.01281,0.08964 -0.05097,0.174221 -0.0659,0.26353 -0.02141,0.128044 0.04039,0.336821 0,0.455166 -0.01788,0.0524 -0.054,0.09884 -0.06393,0.153315 -0.0118,0.06477 0,0.131663 0,0.197495 0,0.275823 0.03728,0.660645 0,0.922486 -0.0091,0.06397 -0.03975,0.123103 -0.05463,0.18598 -0.02965,0.125313 0,0.370759 0,0.488149 0,0.329481 0,0.658962 0,0.988443 0,0.263418 0,0.526835 0,0.790253 0,0.06585 -0.01086,0.13261 0,0.197563 0.01146,0.06853 0.05625,0.128908 0.0661,0.197688 0.01247,0.08704 -0.0097,0.176398 0,0.263791 0.02887,0.259923 0.08304,0.34907 0.131992,0.593268 0.0867,0.432491 0.03638,0.412672 0.198287,0.85844 0.0337,0.09277 0.09748,0.172571 0.132165,0.264978 0.03172,0.08449 0.02516,0.182069 0.06589,0.262603 0.02765,0.05467 0.103941,0.07356 0.131731,0.12815 0.01975,0.03881 -0.01829,0.09112 0,0.130641 0.02441,0.05274 0.09442,0.07461 0.119308,0.127126 0.03879,0.08184 0.03727,0.177666 0.0659,0.263588 0.165384,0.496355 0.105119,0.186502 0.329584,0.72528 0.106339,0.255245 0.152366,0.53304 0.260113,0.787694 0.01123,0.02655 0.05014,0.03357 0.06278,0.05948 0.03016,0.06179 0.03199,0.13492 0.06225,0.196665 0.02814,0.05742 0.234384,0.338489 0.262632,0.39501 0.05298,0.106 0.07903,0.224085 0.131982,0.330096 0.05729,0.11468 0.144714,0.21314 0.197689,0.329873 0.05751,0.126733 0.07696,0.268255 0.131799,0.396169 0.07811,0.182214 0.181731,0.352503 0.266059,0.531925 0.209354,0.44544 0.416536,0.892318 0.602998,1.347815 0.10329,0.25232 0.179388,0.515222 0.28299,0.767414 0.11148,0.271367 0.436579,0.962866 0.596676,1.260873 0.06076,0.11309 0.140638,0.215478 0.198075,0.330288 0.053,0.10594 0.07919,0.223931 0.132185,0.329874 0.0169,0.03379 0.24458,0.359826 0.26379,0.393273 0.405295,0.705638 -0.177746,-0.198255 0.329816,0.528286 0.164506,0.235479 0.297511,0.491966 0.462271,0.727259 0.259651,0.37083 0.591869,0.69018 0.857638,1.05553 0.417778,0.69617 -0.01747,0.0315 0.395976,0.52777 0.05082,0.061 0.08585,0.13367 0.131991,0.1983 0.323108,0.45258 0.07707,0.0804 0.461885,0.59368 0.04763,0.0635 0.08119,0.13727 0.131992,0.19829 0.05969,0.0717 0.139624,0.12504 0.197891,0.19789 0.06712,0.0839 0.109475,0.22922 0.188519,0.30543 0.03296,0.0318 0.08986,0.0309 0.121547,0.0639 0.03392,0.0354 0.03126,0.0967 0.06583,0.13141 0.03439,0.0345 0.09156,0.0366 0.130573,0.0658 0.04951,0.0371 0.08338,0.0921 0.131789,0.13065 0.06168,0.0491 0.136358,0.0804 0.196936,0.13084 0.07181,0.0598 0.127347,0.13729 0.198287,0.19808 0.08347,0.0715 0.18032,0.12638 0.263791,0.1979 0.709378,0.60787 -0.672059,-0.44241 0.659698,0.59421 0.01234,0.01 0.248508,0.11984 0.261243,0.13187 0.03265,0.0308 0.02894,0.0917 0.06552,0.11769 0.05041,0.0359 0.121526,0.0283 0.177273,0.0551 0.04505,0.0217 0.270355,0.22893 0.296484,0.28479 0.02927,0.0626 0.02935,0.13755 0.06475,0.19687 0.03161,0.053 0.09231,0.0827 0.130824,0.13083 0.04943,0.0618 0.07715,0.14023 0.131731,0.19756 0.01296,0.0136 0.04289,-0.0131 0.05637,0 0.02889,0.028 0.02941,0.0763 0.05461,0.10773 0.03938,0.0358 0.07875,0.0716 0.118131,0.10744 0,0.0212 -0.01148,0.0457 0,0.0635 0.0074,0.0115 0.03155,-0.01 0.04099,0 0.0099,0.0104 -0.0043,0.0293 0,0.0429 0.01072,0.0337 0.0988,0.21734 0.112464,0.23951 0.05126,0.0832 0.119505,0.0934 0.180323,0.1824 0.01218,0.0178 -0.009,0.0451 0,0.0647 0.0054,0.0117 0.209813,0.29958 0.229321,0.32476 0.01588,0.0205 0.04857,0.0253 0.06128,0.048 0.01,0.0178 -0.0067,0.0419 0,0.0611 0.02455,0.0708 0.154221,0.2019 0.219513,0.23484 0.04099,0.0207 0.07659,-0.0266 0.129067,-0.0266"
     id="path1505" />
  <path
     style="fill:none;stroke:#00ffff;stroke-width:1px;stroke-linecap:butt;stroke-linejoin:miter;stroke-opacity:1"
     d="m 77.166544,110.1263 c -0.660278,-1.11458 -1.121198,-2.33751 -1.78858,-3.44779 -0.125045,-0.20803 -0.272575,-0.40173 -0.404393,-0.60553 -0.1131,-0.17487 -0.200544,-0.36742 -0.330269,-0.53034 -0.135423,-0.17007 -0.315742,-0.2997 -0.460099,-0.46226 -0.08115,-0.0914 -0.06942,-0.21659 -0.12952,-0.3174 -0.031,-0.052 -0.08343,-0.0878 -0.125959,-0.13084 -0.05753,-0.0583 -0.617809,-0.57691 -0.654699,-0.64569 -0.0098,-0.0183 0.01074,-0.0445 0,-0.0622 -0.03021,-0.0499 -0.0789,-0.0861 -0.116644,-0.13058 -0.11064,-0.13049 -0.230402,-0.25418 -0.328464,-0.39436 -0.05631,-0.0805 -0.07974,-0.18028 -0.131789,-0.26359 -0.141697,-0.22678 -0.453131,-0.54716 -0.59211,-0.72605 -0.219981,-0.28316 -0.01646,-0.0351 -0.06489,-0.17627 -0.02278,-0.0664 -0.07369,-0.12033 -0.09971,-0.18554 -0.02573,-0.0645 -0.03782,-0.13405 -0.06603,-0.19746 -0.480676,-1.08007 0.0588,0.0888 -0.395657,-0.59333 -0.08177,-0.12273 -0.112072,-0.27571 -0.197688,-0.39578 -0.02827,-0.0396 -0.09594,-0.031 -0.130834,-0.0649 -0.0149,-0.0145 0.01055,-0.0445 0,-0.0624 -0.0126,-0.0214 -0.04874,-0.0207 -0.06148,-0.0421 -0.02178,-0.0365 -0.01597,-0.0849 -0.03655,-0.12201 -0.01313,-0.0237 -0.04724,-0.0304 -0.0609,-0.0538 -0.0085,-0.0145 0.0098,-0.0368 0,-0.0505 -0.0069,-0.01 -0.02478,0.004 -0.03595,0 -0.02205,-0.009 -0.04193,-0.0225 -0.06029,-0.0374 -0.0913,-0.0742 -0.06743,-0.10256 -0.188634,-0.18884 -0.01403,-0.01 -0.03716,0.009 -0.05165,0 -0.07596,-0.0488 -0.134722,-0.1931 -0.204311,-0.245286 -0.102584,-0.07693 -0.226165,-0.122491 -0.329883,-0.197891 -0.139071,-0.101101 -0.25331,-0.234704 -0.396371,-0.330076 -0.122676,-0.08178 -0.272916,-0.11608 -0.39558,-0.197882 -0.319433,-0.213021 -0.09022,-0.154956 -0.330086,-0.394634 -0.03388,-0.03385 -0.08934,-0.0366 -0.128671,-0.06392 -0.02353,-0.01635 -0.03064,-0.0525 -0.05654,-0.06475 -0.01145,-0.0054 0,0.02533 0,0.038 0,0.102422 0.0131,0.205685 0,0.307267 -0.551799,4.279822 0.106277,-0.953568 -0.414973,2.074182 -0.06775,0.39356 -0.08059,0.79473 -0.132194,1.19073 -0.004,0.20586 -0.103149,0.39259 -0.131789,0.59307 -0.0093,0.0652 0,0.13175 0,0.19763 -0.02158,0.0656 -0.05356,0.1287 -0.06475,0.19688 -0.02095,0.12764 0.02112,0.26045 0,0.38807 -0.01121,0.0677 -0.05441,0.12771 -0.06392,0.19566 -0.01206,0.0862 0,0.17414 0,0.26121 0,0.30739 0,0.61478 0,0.92218 0,0.94426 0,1.88853 0,2.83279 0,0.29561 -0.101989,0.55796 -0.131673,0.85385 -0.0088,0.0874 0.01911,0.17783 0,0.26359 -0.02575,0.11556 -0.107349,0.21391 -0.132194,0.32968 -0.04175,0.19453 -0.03775,0.39629 -0.06589,0.59325 -0.0159,0.11128 -0.05491,0.21883 -0.0661,0.33068 -0.01095,0.10935 0,0.21979 0,0.32968 -0.02197,0.15389 -0.04534,0.30759 -0.0659,0.46168 -0.07334,0.54959 -0.06608,0.36196 -0.06608,0.70246 0,0.0598 0,0.43536 0,0.16831"
     id="path1507" />
  <path
     style="fill:none;stroke:#00ffff;stroke-width:1px;stroke-linecap:butt;stroke-linejoin:miter;stroke-opacity:1"
     d="m 74.001191,53.135047 c -0.238562,-0.126676 -0.469924,-0.267956 -0.715685,-0.380029 -0.06135,-0.02798 -0.40851,0 -0.479549,0 -0.175339,0 -0.353115,-0.02913 -0.526018,0 -0.04741,0.008 -0.08276,0.0505 -0.128324,0.06583 -0.237929,0.08003 -0.490384,0.103863 -0.724951,0.197688 -0.150191,0.06008 -0.225675,0.19043 -0.372162,0.252053 -0.06404,0.02694 -0.135616,0.03477 -0.197766,0.06583 -0.243177,0.121523 -0.149397,0.137335 -0.385782,0.260682 -0.01741,0.0091 -0.04394,-0.0127 -0.05892,0 -0.0314,0.02663 -0.02885,0.08526 -0.06495,0.105042 -0.03704,0.0203 -0.08591,-0.0109 -0.126712,0 -0.082,0.0219 -0.119387,0.121789 -0.188065,0.171665 -0.03933,0.02856 -0.09166,0.03572 -0.13064,0.06475 -0.04873,0.03628 -0.08158,0.09079 -0.129087,0.128662 -0.124066,0.0989 -0.283825,0.151849 -0.396081,0.263974 -0.05602,0.05596 -0.07581,0.141632 -0.131799,0.197621 -0.03469,0.03469 -0.09696,0.03114 -0.131654,0.06583 -0.0347,0.0347 -0.0364,0.09241 -0.06584,0.131663 -0.03726,0.04968 -0.08783,0.0878 -0.131721,0.131732 -0.08698,0.08706 -0.184129,0.165046 -0.260847,0.261271 -0.04939,0.06195 -0.08091,0.13706 -0.131721,0.197853 -0.05998,0.07177 -0.152263,0.116817 -0.198992,0.197843 -0.0449,0.07786 -0.03423,0.177348 -0.0659,0.261464 -0.326039,0.865945 0.05198,-0.405648 -0.197911,0.593288 -0.0662,0.264624 -0.138259,0.523535 -0.197689,0.791121 -4.8e-5,2.17e-4 -0.131766,0.527733 -0.131789,0.527938 -0.02424,0.218314 0,0.43931 0,0.658965 0,0.451107 -0.02921,0.887542 0.132127,1.318066 0.123793,0.330343 0.171591,0.274401 0.395928,0.594764 0.851644,1.216193 -0.333428,-0.34787 0.395502,0.527688 0.05067,0.06087 0.0758,0.141687 0.131799,0.197688 0.07773,0.07772 0.18162,0.124865 0.263781,0.197882 0.116263,0.103323 0.20551,0.23667 0.330047,0.329854 0.02795,0.02091 1.253843,0.846997 1.527637,0.994244 0.269571,0.144977 0.567381,0.180957 0.856586,0.263579 0.06674,0.01907 0.129086,0.05442 0.197553,0.06583 0.0088,0.0015 0.419375,0.01186 0.441991,0 0.0515,-0.02701 0.07713,-0.09195 0.129829,-0.116548 0.08147,-0.03802 0.184551,-0.01958 0.261484,-0.0661 0.04208,-0.02545 0.03123,-0.09719 0.06603,-0.131934 0.06068,-0.06058 0.158256,-0.06805 0.230441,-0.114327 0.02316,-0.01485 0.03854,-0.0416 0.06393,-0.05218 0.01885,-0.0079 0.04333,0.0098 0.06126,0 0.104264,-0.0569 -0.04687,-0.06438 0.101297,-0.104202 0.04004,-0.01076 0.08398,0.0093 0.124385,0 0.236148,-0.05426 -0.08966,-0.04281 0.122339,-0.04281"
     id="path1509" />
  <ellipse
     style="fill:#00ffff;fill-opacity:0.282353;stroke:#00ffff"
     id="path1567"
     cx="73.100281"
     cy="58.458565"
     rx="0.56406397"
     ry="0.39287707" />
</svg>
